<svg data-v-423bf9ae="" xmlns="http://www.w3.org/2000/svg" viewBox="0 0 676 90" class="iconLeftSlogan"><!----><!----><!----><g data-v-423bf9ae="" id="36de0f8f-e081-4e80-95a2-40352d67410e" fill="black" transform="matrix(4.4576526063226485,0,0,4.4576526063226485,117.9531713365451,-17.20654013240341)"><path d="M7.52 14.35L7.52 13.19L2.97 13.19L2.97 4.58L1.61 4.58L1.61 14.35ZM13.05 5.66C13.75 5.66 14 5.32 14 4.90L14 4.63C14 4.20 13.75 3.86 13.05 3.86C12.35 3.86 12.10 4.20 12.10 4.63L12.10 4.90C12.10 5.32 12.35 5.66 13.05 5.66ZM9.86 14.35L16.07 14.35L16.07 13.27L13.69 13.27L13.69 7.13L9.86 7.13L9.86 8.20L12.39 8.20L12.39 13.27L9.86 13.27ZM19.39 14.35L19.39 9.39C19.39 8.48 20.23 8.06 21.08 8.06C22.13 8.06 22.69 8.68 22.69 9.93L22.69 14.35L24.00 14.35L24.00 9.70C24.00 7.95 23.00 6.96 21.52 6.96C20.33 6.96 19.75 7.60 19.45 8.33L19.39 8.33L19.39 7.13L18.09 7.13L18.09 14.35ZM29.54 14.52C31.00 14.52 32.02 13.85 32.48 12.92L31.60 12.24C31.21 12.98 30.49 13.43 29.55 13.43C28.24 13.43 27.44 12.56 27.44 11.35L27.44 11.06L32.70 11.06L32.70 10.51C32.70 8.43 31.43 6.96 29.44 6.96C27.45 6.96 26.10 8.43 26.10 10.75C26.10 13.05 27.40 14.52 29.54 14.52ZM29.46 7.99C30.59 7.99 31.35 8.81 31.35 10.01L31.35 10.16L27.44 10.16L27.44 10.05C27.44 8.86 28.28 7.99 29.46 7.99ZM46.20 14.52C48.27 14.52 49.55 13.05 49.55 10.74C49.55 8.43 48.27 6.96 46.20 6.96C44.13 6.96 42.85 8.43 42.85 10.74C42.85 13.05 44.13 14.52 46.20 14.52ZM46.20 13.44C45.01 13.44 44.24 12.73 44.24 11.27L44.24 10.21C44.24 8.75 45.01 8.04 46.20 8.04C47.39 8.04 48.16 8.75 48.16 10.21L48.16 11.27C48.16 12.73 47.39 13.44 46.20 13.44ZM51.53 14.35L57.72 14.35L57.72 13.27L55.20 13.27L55.20 8.20L58.04 8.20L58.04 7.13L55.20 7.13L55.20 5.07L58.04 5.07L58.04 3.99L55.62 3.99C54.45 3.99 53.90 4.70 53.90 5.73L53.90 7.13L51.39 7.13L51.39 8.20L53.90 8.20L53.90 13.27L51.53 13.27ZM75.25 5.74L75.25 4.58L67.55 4.58L67.55 5.74L70.73 5.74L70.73 14.35L72.07 14.35L72.07 5.74ZM76.89 14.35L78.19 14.35L78.19 9.39C78.19 8.48 79.03 8.06 79.88 8.06C80.93 8.06 81.49 8.68 81.49 9.93L81.49 14.35L82.80 14.35L82.80 9.70C82.80 7.95 81.80 6.96 80.32 6.96C79.13 6.96 78.55 7.60 78.25 8.33L78.19 8.33L78.19 3.99L76.89 3.99ZM88.20 14.52C90.27 14.52 91.55 13.05 91.55 10.74C91.55 8.43 90.27 6.96 88.20 6.96C86.13 6.96 84.85 8.43 84.85 10.74C84.85 13.05 86.13 14.52 88.20 14.52ZM88.20 13.44C87.01 13.44 86.24 12.73 86.24 11.27L86.24 10.21C86.24 8.75 87.01 8.04 88.20 8.04C89.39 8.04 90.16 8.75 90.16 10.21L90.16 11.27C90.16 12.73 89.39 13.44 88.20 13.44ZM98.21 14.35L99.51 14.35L99.51 7.13L98.21 7.13L98.21 12.08C98.21 12.99 97.37 13.41 96.52 13.41C95.47 13.41 94.91 12.80 94.91 11.55L94.91 7.13L93.60 7.13L93.60 11.77C93.60 13.52 94.60 14.52 96.08 14.52C97.27 14.52 97.85 13.87 98.15 13.15L98.21 13.15ZM108.71 15.16C108.71 13.97 107.91 13.20 106.01 13.20L104.41 13.20C103.74 13.20 103.26 13.12 103.26 12.67C103.26 12.22 103.78 12.00 104.17 11.90C104.41 11.96 104.68 11.97 104.94 11.97C106.68 11.97 107.83 10.98 107.83 9.46C107.83 8.67 107.51 8.01 106.93 7.57L106.93 7.15L108.58 7.15L108.58 6.06L107.27 6.06C106.62 6.06 106.34 6.48 106.34 7.04L106.34 7.22C105.95 7.04 105.48 6.96 104.94 6.96C103.22 6.96 102.09 7.95 102.09 9.46C102.09 10.50 102.61 11.28 103.49 11.68L103.49 11.75C102.73 11.93 102.19 12.25 102.19 12.99C102.19 13.50 102.45 13.82 102.90 14L102.90 14.15C102.13 14.36 101.68 14.77 101.68 15.55C101.68 16.66 102.59 17.32 105.00 17.32C107.48 17.32 108.71 16.63 108.71 15.16ZM107.49 15.23C107.49 15.96 106.79 16.34 105.56 16.34L104.44 16.34C103.31 16.34 102.87 15.85 102.87 15.25C102.87 14.83 103.10 14.53 103.52 14.35L106.01 14.35C107.11 14.35 107.49 14.70 107.49 15.23ZM104.94 11.02C103.89 11.02 103.42 10.47 103.42 9.66L103.42 9.27C103.42 8.46 103.89 7.91 104.94 7.91C106.01 7.91 106.50 8.46 106.50 9.27L106.50 9.66C106.50 10.47 106.01 11.02 104.94 11.02ZM110.49 14.35L111.79 14.35L111.79 9.39C111.79 8.48 112.63 8.06 113.48 8.06C114.53 8.06 115.09 8.68 115.09 9.93L115.09 14.35L116.40 14.35L116.40 9.70C116.40 7.95 115.40 6.96 113.92 6.96C112.73 6.96 112.15 7.60 111.85 8.33L111.79 8.33L111.79 3.99L110.49 3.99ZM124.98 14.35L124.98 13.27L121.77 13.27L121.77 8.20L124.98 8.20L124.98 7.13L121.77 7.13L121.77 4.58L120.54 4.58L120.54 6.43C120.54 6.94 120.34 7.13 119.84 7.13L118.16 7.13L118.16 8.20L120.47 8.20L120.47 12.61C120.47 13.64 121.02 14.35 122.19 14.35Z"></path></g><!----><g data-v-423bf9ae="" id="ae96f6f5-8896-48aa-8533-7dd0d90d280a" transform="matrix(1.4267189049978848,0,0,1.4267189049978848,-19.712311576027048,-26.05141533049796)" stroke="none" fill="black"><path d="M84.896 19.566c-2.92-1.55-6.55-.43-8.1 2.49l-.28.53-.39.73-1.47 2.79-.19.36-6.86 13.05h-.01l-1.68 3.2-5.38 10.21-2.2 4.18-2.91 5.53-1.39 11.57h-39.63v3h40.43c.12 0 .23-.02.35-.04.24-.02.48-.1.67-.27l10.021-8.73c.13-.11.229-.25.3-.39l6.74-12.73 2.52-4.76 1.41-2.68 2.101-3.96 1.43-2.7h-.01l.739-1.38 3.86-7.31 1.59-3.01.721-1.35.119-.23c1.55-2.92.42-6.56-2.501-8.1zm-25.329 50.85l-2.461-1.3.61-5.06c.3.05.61.12.93.21.011 0 .021.01.04.01.62.17 1.311.45 2.091.87.8.42 1.42.83 1.909 1.25.011.01.021.02.03.02.25.21.48.43.69.66l-3.839 3.34zm20.8-34.69l-2.32 4.39-3.57 6.75-1.42 2.68-8.2 15.51c-.189-.18-.38-.35-.59-.52-.63-.54-1.39-1.05-2.34-1.55s-1.8-.85-2.6-1.06c-.25-.08-.5-.14-.75-.2l.35-.66 4.75-8.98 2.76-5.21.885-1.68 3.689-6.975.526-.995.359-.68 2.511-4.73c3.41.37 5.43 2.13 6.35 3.18l-.39.73zm.88-1.67c-1.08-1.14-3.12-2.74-6.34-3.19l.43-.81c3.44.4 5.44 2.23 6.31 3.26l-.4.74zm3.99-7.53l-.311.6h-.01l-.311.59-.279.53-.15.28-.76 1.43-.32.61-.729 1.38-.221.42c-1.05-1.13-3.079-2.77-6.31-3.26l.04-.08h-.01l.1-.2 1.19-2.25.72-1.37.72-1.37.19-.36.02.01.15-.28c.92-1.74 3.07-2.4 4.8-1.48a3.551 3.551 0 011.481 4.8zM49.43 81.67c-.1.12-.21.22-.33.28l.33-.28z"></path></g><!----><g data-v-423bf9ae="" id="051493e6-281e-4923-9f6f-0d7498da9d74" fill="black" transform="matrix(1.6931019155811544,0,0,1.6931019155811544,124.36810841146135,56.44448782745502)"><path d="M1.75 4.65C1.75 4.03 2.11 3.08 4.21 3.08C5.91 3.08 6.69 3.82 6.80 4.75L7.88 4.75C7.80 3.36 6.68 2.10 4.21 2.10C1.89 2.10 0.73 3.15 0.73 4.66C0.73 7.84 7.07 6.69 7.07 8.96C7.07 10.05 6.09 10.60 4.52 10.60C2.91 10.60 1.61 10.05 1.54 8.71L0.45 8.71C0.59 10.37 1.71 11.59 4.45 11.59C6.73 11.59 8.12 10.64 8.12 8.92C8.12 5.68 1.75 6.80 1.75 4.65ZM20.90 2.21L19.59 2.21L15.65 11.48L16.81 11.48L17.95 8.79L22.54 8.79L23.67 11.48L24.84 11.48ZM18.35 7.83L20.24 3.30L22.13 7.83ZM35.83 7.81L39.70 2.21L38.43 2.21L35.29 6.72L32.16 2.21L30.88 2.21L34.78 7.81L34.78 11.48L35.83 11.48ZM65.62 2.21L62.36 6.61L59.04 2.21L57.82 2.21L57.82 11.48L58.87 11.48L58.87 3.81L62.36 8.22L65.79 3.81L65.79 11.48L66.84 11.48L66.84 2.21ZM80.22 2.10C77.41 2.10 75.52 4.21 75.52 6.85C75.52 9.48 77.41 11.59 80.22 11.59C83.03 11.59 84.92 9.48 84.92 6.85C84.92 4.21 83.03 2.10 80.22 2.10ZM80.22 10.57C77.97 10.57 76.57 8.93 76.57 6.85C76.57 4.76 77.97 3.12 80.22 3.12C82.47 3.12 83.87 4.76 83.87 6.85C83.87 8.93 82.47 10.57 80.22 10.57ZM94.65 7.92L97.87 7.92L100.11 11.48L101.36 11.48L98.92 7.74C99.96 7.50 101.16 6.90 101.16 5.11C101.16 3.35 99.95 2.21 98.04 2.21L93.60 2.21L93.60 11.48L94.65 11.48ZM94.65 3.21L97.92 3.21C99.23 3.21 100.11 3.93 100.11 5.11C100.11 6.55 98.85 6.93 97.86 6.93L94.65 6.93ZM116.79 3.22L116.79 2.21L109.97 2.21L109.97 11.48L116.79 11.48L116.79 10.47L111.02 10.47L111.02 7.35L116.17 7.35L116.17 6.33L111.02 6.33L111.02 3.22ZM141.04 3.70L143.54 11.48L144.73 11.48L147.62 2.21L146.51 2.21L144.13 10.00L141.64 2.21L140.43 2.21L137.94 10.00L135.56 2.21L134.46 2.21L137.34 11.48L138.53 11.48ZM156.93 2.21L155.88 2.21L155.88 11.48L156.93 11.48ZM172.77 2.21L165.26 2.21L165.26 3.22L168.49 3.22L168.49 11.48L169.54 11.48L169.54 3.22L172.77 3.22ZM187.54 2.21L187.54 6.33L182.15 6.33L182.15 2.21L181.10 2.21L181.10 11.48L182.15 11.48L182.15 7.35L187.54 7.35L187.54 11.48L188.59 11.48L188.59 2.21ZM207.84 2.21L207.84 11.48L213.95 11.48L213.95 10.47L208.89 10.47L208.89 2.21ZM229.12 3.22L229.12 2.21L222.31 2.21L222.31 11.48L229.12 11.48L229.12 10.47L223.36 10.47L223.36 7.35L228.51 7.35L228.51 6.33L223.36 6.33L223.36 3.22ZM238.32 4.65C238.32 4.03 238.69 3.08 240.79 3.08C242.48 3.08 243.26 3.82 243.38 4.75L244.45 4.75C244.37 3.36 243.25 2.10 240.79 2.10C238.46 2.10 237.30 3.15 237.30 4.66C237.30 7.84 243.64 6.69 243.64 8.96C243.64 10.05 242.66 10.60 241.09 10.60C239.48 10.60 238.18 10.05 238.11 8.71L237.02 8.71C237.16 10.37 238.28 11.59 241.02 11.59C243.31 11.59 244.69 10.64 244.69 8.92C244.69 5.68 238.32 6.80 238.32 4.65ZM253.93 4.65C253.93 4.03 254.30 3.08 256.40 3.08C258.09 3.08 258.87 3.82 258.99 4.75L260.06 4.75C259.98 3.36 258.86 2.10 256.40 2.10C254.07 2.10 252.91 3.15 252.91 4.66C252.91 7.84 259.25 6.69 259.25 8.96C259.25 10.05 258.27 10.60 256.70 10.60C255.09 10.60 253.79 10.05 253.72 8.71L252.63 8.71C252.77 10.37 253.89 11.59 256.63 11.59C258.92 11.59 260.30 10.64 260.30 8.92C260.30 5.68 253.93 6.80 253.93 4.65Z"></path></g></svg>